<svg width="142" height="142" viewBox="0 0 142 142" fill="none" xmlns="http://www.w3.org/2000/svg">
<rect x="142" y="70.9997" width="100" height="100" rx="5" transform="rotate(135 142 70.9997)" fill="#939393"/>
<g clip-path="url(#clip0_23_80)">
<path d="M93.0563 45.9997L89.0398 90.9945L70.9855 95.9997L52.981 91.0015L48.9688 45.9997H93.0563Z" fill="#264DE4"/>
<path d="M71.0125 92.1739L85.6013 88.1294L89.0336 49.6793H71.0125V92.1739Z" fill="#2965F1"/>
<path d="M71.0125 66.3698H58.1667L58.6614 71.889H71.0125V66.3698Z" fill="#EBEBEB"/>
<path d="M71.0125 55.1986H70.9934H57.1728L57.6745 60.718H71.0125V55.1986Z" fill="#EBEBEB"/>
<path d="M58.908 74.6488L59.6813 83.3148L70.9871 86.4534L71.0125 86.4464V80.704L70.9883 80.7104L64.8415 79.0507L64.4485 74.6488H61.4616H58.908Z" fill="#EBEBEB"/>
<path d="M77.7898 71.889L77.1492 79.0471L70.9934 80.7086V86.4508L82.3083 83.3149L82.3913 82.3824L83.6883 67.8519L83.8229 66.3698L84.8194 55.1986H70.9934V60.718H78.7707L78.2685 66.3698H70.9934V71.889H77.7898Z" fill="white"/>
</g>
<defs>
<clipPath id="clip0_23_80">
<rect width="50" height="50" fill="white" transform="translate(46 45.9997)"/>
</clipPath>
</defs>
</svg>
