<svg width="142" height="142" viewBox="0 0 142 142" fill="none" xmlns="http://www.w3.org/2000/svg">
<rect x="142" y="70.9997" width="100" height="100" rx="5" transform="rotate(135 142 70.9997)" fill="#939393"/>
<g clip-path="url(#clip0_23_82)">
<path d="M62.6731 95.9997C64.8833 95.9997 67.0029 95.1217 68.5657 93.5589C70.1285 91.9961 71.0064 89.8765 71.0064 87.6664V79.333H62.6731C60.463 79.333 58.3434 80.211 56.7806 81.7738C55.2178 83.3366 54.3398 85.4562 54.3398 87.6664C54.3398 89.8765 55.2178 91.9961 56.7806 93.5589C58.3434 95.1217 60.463 95.9997 62.6731 95.9997Z" fill="#0ACF83"/>
<path d="M54.3398 70.9997C54.3398 68.7895 55.2178 66.6699 56.7806 65.1071C58.3434 63.5443 60.463 62.6664 62.6731 62.6664H71.0064V79.333H62.6731C60.463 79.333 58.3434 78.455 56.7806 76.8922C55.2178 75.3294 54.3398 73.2098 54.3398 70.9997Z" fill="#A259FF"/>
<path d="M54.3398 54.333C54.3398 52.124 55.2169 50.0054 56.7783 48.4428C58.3397 46.8802 60.4576 46.0014 62.6666 45.9997H70.9999V62.6664H62.6731C60.463 62.6664 58.3434 61.7884 56.7806 60.2256C55.2178 58.6628 54.3398 56.5432 54.3398 54.333Z" fill="#F24E1E"/>
<path d="M71.0065 45.9997H79.3398C81.5499 45.9997 83.6696 46.8777 85.2324 48.4405C86.7952 50.0033 87.6731 52.1229 87.6731 54.333C87.6731 56.5432 86.7952 58.6628 85.2324 60.2256C83.6696 61.7884 81.5499 62.6664 79.3398 62.6664H71.0065V45.9997Z" fill="#FF7262"/>
<path d="M87.6731 70.9997C87.6731 73.2098 86.7952 75.3294 85.2324 76.8922C83.6696 78.455 81.5499 79.333 79.3398 79.333C77.1297 79.333 75.0101 78.455 73.4472 76.8922C71.8844 75.3294 71.0065 73.2098 71.0065 70.9997C71.0065 68.7895 71.8844 66.6699 73.4472 65.1071C75.0101 63.5443 77.1297 62.6664 79.3398 62.6664C81.5499 62.6664 83.6696 63.5443 85.2324 65.1071C86.7952 66.6699 87.6731 68.7895 87.6731 70.9997Z" fill="#1ABCFE"/>
</g>
<defs>
<clipPath id="clip0_23_82">
<rect width="50" height="50" fill="white" transform="translate(45.9999 45.9997)"/>
</clipPath>
</defs>
</svg>
