<svg width="142" height="142" viewBox="0 0 142 142" fill="none" xmlns="http://www.w3.org/2000/svg">
<rect x="142" y="70.9997" width="100" height="100" rx="5" transform="rotate(135 142 70.9997)" fill="#939393"/>
<g clip-path="url(#clip0_23_81)">
<path d="M52.9687 91.0028L48.9562 46.0013H93.0437L89.0281 90.9966L70.9719 95.9997L52.9687 91.0028Z" fill="#E44D26"/>
<path d="M85.5891 88.1309L89.0219 49.6809H71V92.1763L85.5891 88.1309Z" fill="#F16529"/>
<path d="M70.9812 55.1997H57.1594L58.6484 71.8903H71V66.3716H63.6969L63.1922 60.72H71V55.1997H70.9812ZM71 80.6872L70.9765 80.6935L64.8297 79.0341L64.439 74.6325H58.8953L59.6687 83.2981L70.975 86.4231L71 86.4153V80.6872Z" fill="#EBEBEB"/>
<path d="M70.9813 71.8903H77.7781L77.1531 79.0466L70.9969 80.7075V86.4497L82.3125 83.3138L83.8281 66.3685H71L70.9813 71.8903ZM84.675 56.681L84.8063 55.1997H70.9781V60.7185H84.3094L84.4188 59.4778L84.675 56.681Z" fill="white"/>
</g>
<defs>
<clipPath id="clip0_23_81">
<rect width="50" height="50" fill="white" transform="translate(46 45.9997)"/>
</clipPath>
</defs>
</svg>
