<svg width="331" height="87" viewBox="0 0 331 87" fill="none" xmlns="http://www.w3.org/2000/svg">
<path d="M4.96 18.52C4.26667 18.52 3.68 18.28 3.2 17.8C2.72 17.32 2.48 16.7333 2.48 16.04C2.48 15.3467 2.72 14.76 3.2 14.28C3.68 13.8 4.26667 13.56 4.96 13.56C5.62667 13.56 6.18667 13.8 6.64 14.28C7.12 14.76 7.36 15.3467 7.36 16.04C7.36 16.7333 7.12 17.32 6.64 17.8C6.18667 18.28 5.62667 18.52 4.96 18.52ZM6.72 22.08V44H3.08V22.08H6.72ZM23.6038 21.68C26.2704 21.68 28.4304 22.4933 30.0838 24.12C31.7371 25.72 32.5638 28.04 32.5638 31.08V44H28.9638V31.6C28.9638 29.4133 28.4171 27.7467 27.3238 26.6C26.2304 25.4267 24.7371 24.84 22.8438 24.84C20.9238 24.84 19.3904 25.44 18.2438 26.64C17.1238 27.84 16.5638 29.5867 16.5638 31.88V44H12.9238V22.08H16.5638V25.2C17.2838 24.08 18.2571 23.2133 19.4838 22.6C20.7371 21.9867 22.1104 21.68 23.6038 21.68ZM47.4297 25.08H42.8297V44H39.1897V25.08H36.3497V22.08H39.1897V20.52C39.1897 18.0667 39.8164 16.28 41.0697 15.16C42.3497 14.0133 44.3897 13.44 47.1897 13.44V16.48C45.5897 16.48 44.4564 16.8 43.7897 17.44C43.1497 18.0533 42.8297 19.08 42.8297 20.52V22.08H47.4297V25.08ZM61.2338 44.36C59.1804 44.36 57.3138 43.8933 55.6338 42.96C53.9804 42.0267 52.6738 40.7067 51.7138 39C50.7804 37.2667 50.3138 35.2667 50.3138 33C50.3138 30.76 50.7938 28.7867 51.7538 27.08C52.7404 25.3467 54.0738 24.0267 55.7538 23.12C57.4338 22.1867 59.3138 21.72 61.3938 21.72C63.4738 21.72 65.3538 22.1867 67.0338 23.12C68.7138 24.0267 70.0338 25.3333 70.9938 27.04C71.9804 28.7467 72.4738 30.7333 72.4738 33C72.4738 35.2667 71.9671 37.2667 70.9538 39C69.9671 40.7067 68.6204 42.0267 66.9138 42.96C65.2071 43.8933 63.3138 44.36 61.2338 44.36ZM61.2338 41.16C62.5404 41.16 63.7671 40.8533 64.9138 40.24C66.0604 39.6267 66.9804 38.7067 67.6738 37.48C68.3938 36.2533 68.7538 34.76 68.7538 33C68.7538 31.24 68.4071 29.7467 67.7138 28.52C67.0204 27.2933 66.1138 26.3867 64.9938 25.8C63.8738 25.1867 62.6604 24.88 61.3538 24.88C60.0204 24.88 58.7938 25.1867 57.6738 25.8C56.5804 26.3867 55.7004 27.2933 55.0338 28.52C54.3671 29.7467 54.0338 31.24 54.0338 33C54.0338 34.7867 54.3538 36.2933 54.9938 37.52C55.6604 38.7467 56.5404 39.6667 57.6338 40.28C58.7271 40.8667 59.9271 41.16 61.2338 41.16ZM86.0997 44.28C84.2597 44.28 82.6064 43.96 81.1397 43.32C79.6997 42.6533 78.5664 41.7467 77.7397 40.6C76.913 39.4267 76.4864 38.08 76.4597 36.56H80.3397C80.473 37.8667 81.0064 38.9733 81.9397 39.88C82.8997 40.76 84.2864 41.2 86.0997 41.2C87.833 41.2 89.193 40.7733 90.1797 39.92C91.193 39.04 91.6997 37.92 91.6997 36.56C91.6997 35.4933 91.4064 34.6267 90.8197 33.96C90.233 33.2933 89.4997 32.7867 88.6197 32.44C87.7397 32.0933 86.553 31.72 85.0597 31.32C83.2197 30.84 81.7397 30.36 80.6197 29.88C79.5264 29.4 78.5797 28.6533 77.7797 27.64C77.0064 26.6 76.6197 25.2133 76.6197 23.48C76.6197 21.96 77.0064 20.6133 77.7797 19.44C78.553 18.2667 79.633 17.36 81.0197 16.72C82.433 16.08 84.0464 15.76 85.8597 15.76C88.473 15.76 90.6064 16.4133 92.2597 17.72C93.9397 19.0267 94.8864 20.76 95.0997 22.92H91.0997C90.9664 21.8533 90.4064 20.92 89.4197 20.12C88.433 19.2933 87.1264 18.88 85.4997 18.88C83.9797 18.88 82.7397 19.28 81.7797 20.08C80.8197 20.8533 80.3397 21.9467 80.3397 23.36C80.3397 24.3733 80.6197 25.2 81.1797 25.84C81.7664 26.48 82.473 26.9733 83.2997 27.32C84.153 27.64 85.3397 28.0133 86.8597 28.44C88.6997 28.9467 90.1797 29.4533 91.2997 29.96C92.4197 30.44 93.3797 31.2 94.1797 32.24C94.9797 33.2533 95.3797 34.64 95.3797 36.4C95.3797 37.76 95.0197 39.04 94.2997 40.24C93.5797 41.44 92.513 42.4133 91.0997 43.16C89.6864 43.9067 88.0197 44.28 86.0997 44.28ZM110.296 44.36C108.243 44.36 106.376 43.8933 104.696 42.96C103.043 42.0267 101.736 40.7067 100.776 39C99.8429 37.2667 99.3763 35.2667 99.3763 33C99.3763 30.76 99.8563 28.7867 100.816 27.08C101.803 25.3467 103.136 24.0267 104.816 23.12C106.496 22.1867 108.376 21.72 110.456 21.72C112.536 21.72 114.416 22.1867 116.096 23.12C117.776 24.0267 119.096 25.3333 120.056 27.04C121.043 28.7467 121.536 30.7333 121.536 33C121.536 35.2667 121.03 37.2667 120.016 39C119.03 40.7067 117.683 42.0267 115.976 42.96C114.27 43.8933 112.376 44.36 110.296 44.36ZM110.296 41.16C111.603 41.16 112.83 40.8533 113.976 40.24C115.123 39.6267 116.043 38.7067 116.736 37.48C117.456 36.2533 117.816 34.76 117.816 33C117.816 31.24 117.47 29.7467 116.776 28.52C116.083 27.2933 115.176 26.3867 114.056 25.8C112.936 25.1867 111.723 24.88 110.416 24.88C109.083 24.88 107.856 25.1867 106.736 25.8C105.643 26.3867 104.763 27.2933 104.096 28.52C103.43 29.7467 103.096 31.24 103.096 33C103.096 34.7867 103.416 36.2933 104.056 37.52C104.723 38.7467 105.603 39.6667 106.696 40.28C107.79 40.8667 108.99 41.16 110.296 41.16ZM129.962 14.4V44H126.322V14.4H129.962ZM155.606 22.08V44H151.966V40.76C151.273 41.88 150.299 42.76 149.046 43.4C147.819 44.0133 146.459 44.32 144.966 44.32C143.259 44.32 141.726 43.9733 140.366 43.28C139.006 42.56 137.926 41.4933 137.126 40.08C136.353 38.6667 135.966 36.9467 135.966 34.92V22.08H139.566V34.44C139.566 36.6 140.113 38.2667 141.206 39.44C142.299 40.5867 143.793 41.16 145.686 41.16C147.633 41.16 149.166 40.56 150.286 39.36C151.406 38.16 151.966 36.4133 151.966 34.12V22.08H155.606ZM166.192 25.08V38C166.192 39.0667 166.419 39.8267 166.872 40.28C167.325 40.7067 168.112 40.92 169.232 40.92H171.912V44H168.632C166.605 44 165.085 43.5333 164.072 42.6C163.059 41.6667 162.552 40.1333 162.552 38V25.08H159.712V22.08H162.552V16.56H166.192V22.08H171.912V25.08H166.192ZM178.202 18.52C177.509 18.52 176.922 18.28 176.442 17.8C175.962 17.32 175.722 16.7333 175.722 16.04C175.722 15.3467 175.962 14.76 176.442 14.28C176.922 13.8 177.509 13.56 178.202 13.56C178.869 13.56 179.429 13.8 179.882 14.28C180.362 14.76 180.602 15.3467 180.602 16.04C180.602 16.7333 180.362 17.32 179.882 17.8C179.429 18.28 178.869 18.52 178.202 18.52ZM179.962 22.08V44H176.322V22.08H179.962ZM195.726 44.36C193.673 44.36 191.806 43.8933 190.126 42.96C188.473 42.0267 187.166 40.7067 186.206 39C185.273 37.2667 184.806 35.2667 184.806 33C184.806 30.76 185.286 28.7867 186.246 27.08C187.233 25.3467 188.566 24.0267 190.246 23.12C191.926 22.1867 193.806 21.72 195.886 21.72C197.966 21.72 199.846 22.1867 201.526 23.12C203.206 24.0267 204.526 25.3333 205.486 27.04C206.473 28.7467 206.966 30.7333 206.966 33C206.966 35.2667 206.459 37.2667 205.446 39C204.459 40.7067 203.113 42.0267 201.406 42.96C199.699 43.8933 197.806 44.36 195.726 44.36ZM195.726 41.16C197.033 41.16 198.259 40.8533 199.406 40.24C200.553 39.6267 201.473 38.7067 202.166 37.48C202.886 36.2533 203.246 34.76 203.246 33C203.246 31.24 202.899 29.7467 202.206 28.52C201.513 27.2933 200.606 26.3867 199.486 25.8C198.366 25.1867 197.153 24.88 195.846 24.88C194.513 24.88 193.286 25.1867 192.166 25.8C191.073 26.3867 190.193 27.2933 189.526 28.52C188.859 29.7467 188.526 31.24 188.526 33C188.526 34.7867 188.846 36.2933 189.486 37.52C190.153 38.7467 191.033 39.6667 192.126 40.28C193.219 40.8667 194.419 41.16 195.726 41.16ZM222.432 21.68C225.099 21.68 227.259 22.4933 228.912 24.12C230.565 25.72 231.392 28.04 231.392 31.08V44H227.792V31.6C227.792 29.4133 227.245 27.7467 226.152 26.6C225.059 25.4267 223.565 24.84 221.672 24.84C219.752 24.84 218.219 25.44 217.072 26.64C215.952 27.84 215.392 29.5867 215.392 31.88V44H211.752V22.08H215.392V25.2C216.112 24.08 217.085 23.2133 218.312 22.6C219.565 21.9867 220.939 21.68 222.432 21.68ZM245.098 44.36C243.418 44.36 241.911 44.08 240.578 43.52C239.244 42.9333 238.191 42.1333 237.418 41.12C236.644 40.08 236.218 38.8933 236.138 37.56H239.898C240.004 38.6533 240.511 39.5467 241.418 40.24C242.351 40.9333 243.564 41.28 245.058 41.28C246.444 41.28 247.538 40.9733 248.338 40.36C249.138 39.7467 249.538 38.9733 249.538 38.04C249.538 37.08 249.111 36.3733 248.258 35.92C247.404 35.44 246.084 34.9733 244.298 34.52C242.671 34.0933 241.338 33.6667 240.298 33.24C239.284 32.7867 238.404 32.1333 237.658 31.28C236.938 30.4 236.578 29.2533 236.578 27.84C236.578 26.72 236.911 25.6933 237.578 24.76C238.244 23.8267 239.191 23.0933 240.418 22.56C241.644 22 243.044 21.72 244.618 21.72C247.044 21.72 249.004 22.3333 250.498 23.56C251.991 24.7867 252.791 26.4667 252.898 28.6H249.258C249.178 27.4533 248.711 26.5333 247.858 25.84C247.031 25.1467 245.911 24.8 244.498 24.8C243.191 24.8 242.151 25.08 241.378 25.64C240.604 26.2 240.218 26.9333 240.218 27.84C240.218 28.56 240.444 29.16 240.898 29.64C241.378 30.0933 241.964 30.4667 242.658 30.76C243.378 31.0267 244.364 31.3333 245.618 31.68C247.191 32.1067 248.471 32.5333 249.458 32.96C250.444 33.36 251.284 33.9733 251.978 34.8C252.698 35.6267 253.071 36.7067 253.098 38.04C253.098 39.24 252.764 40.32 252.098 41.28C251.431 42.24 250.484 43 249.258 43.56C248.058 44.0933 246.671 44.36 245.098 44.36Z" fill="#E1DE00"/>
<path d="M145.04 66.848L141.408 73.792V78H139.952V73.792L136.304 66.848H137.92L140.672 72.496L143.424 66.848H145.04ZM150.4 78.144C149.578 78.144 148.832 77.9573 148.16 77.584C147.498 77.2107 146.976 76.6827 146.592 76C146.218 75.3067 146.032 74.5067 146.032 73.6C146.032 72.704 146.224 71.9147 146.608 71.232C147.002 70.5387 147.536 70.0107 148.208 69.648C148.88 69.2747 149.632 69.088 150.464 69.088C151.296 69.088 152.048 69.2747 152.72 69.648C153.392 70.0107 153.92 70.5333 154.304 71.216C154.698 71.8987 154.896 72.6933 154.896 73.6C154.896 74.5067 154.693 75.3067 154.288 76C153.893 76.6827 153.354 77.2107 152.672 77.584C151.989 77.9573 151.232 78.144 150.4 78.144ZM150.4 76.864C150.922 76.864 151.413 76.7413 151.872 76.496C152.33 76.2507 152.698 75.8827 152.976 75.392C153.264 74.9013 153.408 74.304 153.408 73.6C153.408 72.896 153.269 72.2987 152.992 71.808C152.714 71.3173 152.352 70.9547 151.904 70.72C151.456 70.4747 150.97 70.352 150.448 70.352C149.914 70.352 149.424 70.4747 148.976 70.72C148.538 70.9547 148.186 71.3173 147.92 71.808C147.653 72.2987 147.52 72.896 147.52 73.6C147.52 74.3147 147.648 74.9173 147.904 75.408C148.17 75.8987 148.522 76.2667 148.96 76.512C149.397 76.7467 149.877 76.864 150.4 76.864ZM164.586 69.232V78H163.13V76.704C162.853 77.152 162.463 77.504 161.962 77.76C161.471 78.0053 160.927 78.128 160.33 78.128C159.647 78.128 159.034 77.9893 158.49 77.712C157.946 77.424 157.514 76.9973 157.194 76.432C156.885 75.8667 156.73 75.1787 156.73 74.368V69.232H158.17V74.176C158.17 75.04 158.389 75.7067 158.826 76.176C159.263 76.6347 159.861 76.864 160.618 76.864C161.397 76.864 162.01 76.624 162.458 76.144C162.906 75.664 163.13 74.9653 163.13 74.048V69.232H164.586ZM168.501 70.656C168.757 70.1547 169.119 69.7653 169.589 69.488C170.069 69.2107 170.65 69.072 171.333 69.072V70.576H170.949C169.317 70.576 168.501 71.4613 168.501 73.232V78H167.045V69.232H168.501V70.656ZM179.055 70.432V75.6C179.055 76.0267 179.146 76.3307 179.327 76.512C179.508 76.6827 179.823 76.768 180.271 76.768H181.343V78H180.031C179.22 78 178.612 77.8133 178.207 77.44C177.802 77.0667 177.599 76.4533 177.599 75.6V70.432H176.463V69.232H177.599V67.024H179.055V69.232H181.343V70.432H179.055ZM191.107 73.28C191.107 73.5573 191.091 73.8507 191.059 74.16H184.051C184.104 75.024 184.398 75.7013 184.931 76.192C185.475 76.672 186.131 76.912 186.899 76.912C187.528 76.912 188.051 76.768 188.467 76.48C188.894 76.1813 189.192 75.7867 189.363 75.296H190.931C190.696 76.1387 190.227 76.8267 189.523 77.36C188.819 77.8827 187.944 78.144 186.899 78.144C186.067 78.144 185.32 77.9573 184.659 77.584C184.008 77.2107 183.496 76.6827 183.123 76C182.75 75.3067 182.563 74.5067 182.563 73.6C182.563 72.6933 182.744 71.8987 183.107 71.216C183.47 70.5333 183.976 70.0107 184.627 69.648C185.288 69.2747 186.046 69.088 186.899 69.088C187.731 69.088 188.467 69.2693 189.107 69.632C189.747 69.9947 190.238 70.496 190.579 71.136C190.931 71.7653 191.107 72.48 191.107 73.28ZM189.603 72.976C189.603 72.4213 189.48 71.9467 189.235 71.552C188.99 71.1467 188.654 70.8427 188.227 70.64C187.811 70.4267 187.347 70.32 186.835 70.32C186.099 70.32 185.47 70.5547 184.947 71.024C184.435 71.4933 184.142 72.144 184.067 72.976H189.603ZM192.485 73.6C192.485 72.6933 192.666 71.904 193.029 71.232C193.392 70.5493 193.893 70.0213 194.533 69.648C195.184 69.2747 195.925 69.088 196.757 69.088C197.834 69.088 198.72 69.3493 199.413 69.872C200.117 70.3947 200.581 71.12 200.805 72.048H199.237C199.088 71.5147 198.794 71.0933 198.357 70.784C197.93 70.4747 197.397 70.32 196.757 70.32C195.925 70.32 195.253 70.608 194.741 71.184C194.229 71.7493 193.973 72.5547 193.973 73.6C193.973 74.656 194.229 75.472 194.741 76.048C195.253 76.624 195.925 76.912 196.757 76.912C197.397 76.912 197.93 76.7627 198.357 76.464C198.784 76.1653 199.077 75.7387 199.237 75.184H200.805C200.57 76.08 200.101 76.8 199.397 77.344C198.693 77.8773 197.813 78.144 196.757 78.144C195.925 78.144 195.184 77.9573 194.533 77.584C193.893 77.2107 193.392 76.6827 193.029 76C192.666 75.3173 192.485 74.5173 192.485 73.6ZM207.02 69.072C208.086 69.072 208.95 69.3973 209.612 70.048C210.273 70.688 210.604 71.616 210.604 72.832V78H209.164V73.04C209.164 72.1653 208.945 71.4987 208.508 71.04C208.07 70.5707 207.473 70.336 206.716 70.336C205.948 70.336 205.334 70.576 204.876 71.056C204.428 71.536 204.204 72.2347 204.204 73.152V78H202.748V69.232H204.204V70.48C204.492 70.032 204.881 69.6853 205.372 69.44C205.873 69.1947 206.422 69.072 207.02 69.072ZM216.806 78.144C215.985 78.144 215.238 77.9573 214.566 77.584C213.905 77.2107 213.382 76.6827 212.998 76C212.625 75.3067 212.438 74.5067 212.438 73.6C212.438 72.704 212.63 71.9147 213.014 71.232C213.409 70.5387 213.942 70.0107 214.614 69.648C215.286 69.2747 216.038 69.088 216.87 69.088C217.702 69.088 218.454 69.2747 219.126 69.648C219.798 70.0107 220.326 70.5333 220.71 71.216C221.105 71.8987 221.302 72.6933 221.302 73.6C221.302 74.5067 221.099 75.3067 220.694 76C220.299 76.6827 219.761 77.2107 219.078 77.584C218.395 77.9573 217.638 78.144 216.806 78.144ZM216.806 76.864C217.329 76.864 217.819 76.7413 218.278 76.496C218.737 76.2507 219.105 75.8827 219.382 75.392C219.67 74.9013 219.814 74.304 219.814 73.6C219.814 72.896 219.675 72.2987 219.398 71.808C219.121 71.3173 218.758 70.9547 218.31 70.72C217.862 70.4747 217.377 70.352 216.854 70.352C216.321 70.352 215.83 70.4747 215.382 70.72C214.945 70.9547 214.593 71.3173 214.326 71.808C214.059 72.2987 213.926 72.896 213.926 73.6C213.926 74.3147 214.054 74.9173 214.31 75.408C214.577 75.8987 214.929 76.2667 215.366 76.512C215.803 76.7467 216.283 76.864 216.806 76.864ZM224.672 66.16V78H223.216V66.16H224.672ZM230.978 78.144C230.157 78.144 229.41 77.9573 228.738 77.584C228.077 77.2107 227.554 76.6827 227.17 76C226.797 75.3067 226.61 74.5067 226.61 73.6C226.61 72.704 226.802 71.9147 227.186 71.232C227.581 70.5387 228.114 70.0107 228.786 69.648C229.458 69.2747 230.21 69.088 231.042 69.088C231.874 69.088 232.626 69.2747 233.298 69.648C233.97 70.0107 234.498 70.5333 234.882 71.216C235.277 71.8987 235.474 72.6933 235.474 73.6C235.474 74.5067 235.271 75.3067 234.866 76C234.471 76.6827 233.933 77.2107 233.25 77.584C232.567 77.9573 231.81 78.144 230.978 78.144ZM230.978 76.864C231.501 76.864 231.991 76.7413 232.45 76.496C232.909 76.2507 233.277 75.8827 233.554 75.392C233.842 74.9013 233.986 74.304 233.986 73.6C233.986 72.896 233.847 72.2987 233.57 71.808C233.293 71.3173 232.93 70.9547 232.482 70.72C232.034 70.4747 231.549 70.352 231.026 70.352C230.493 70.352 230.002 70.4747 229.554 70.72C229.117 70.9547 228.765 71.3173 228.498 71.808C228.231 72.2987 228.098 72.896 228.098 73.6C228.098 74.3147 228.226 74.9173 228.482 75.408C228.749 75.8987 229.101 76.2667 229.538 76.512C229.975 76.7467 230.455 76.864 230.978 76.864ZM241.004 69.088C241.762 69.088 242.423 69.2533 242.988 69.584C243.564 69.9147 243.991 70.3307 244.268 70.832V69.232H245.74V78.192C245.74 78.992 245.57 79.7013 245.228 80.32C244.887 80.9493 244.396 81.44 243.756 81.792C243.127 82.144 242.391 82.32 241.548 82.32C240.396 82.32 239.436 82.048 238.668 81.504C237.9 80.96 237.447 80.2187 237.308 79.28H238.748C238.908 79.8133 239.239 80.24 239.74 80.56C240.242 80.8907 240.844 81.056 241.548 81.056C242.348 81.056 242.999 80.8053 243.5 80.304C244.012 79.8027 244.268 79.0987 244.268 78.192V76.352C243.98 76.864 243.554 77.2907 242.988 77.632C242.423 77.9733 241.762 78.144 241.004 78.144C240.226 78.144 239.516 77.952 238.876 77.568C238.247 77.184 237.751 76.6453 237.388 75.952C237.026 75.2587 236.844 74.4693 236.844 73.584C236.844 72.688 237.026 71.904 237.388 71.232C237.751 70.5493 238.247 70.0213 238.876 69.648C239.516 69.2747 240.226 69.088 241.004 69.088ZM244.268 73.6C244.268 72.9387 244.135 72.3627 243.868 71.872C243.602 71.3813 243.239 71.008 242.78 70.752C242.332 70.4853 241.836 70.352 241.292 70.352C240.748 70.352 240.252 70.48 239.804 70.736C239.356 70.992 238.999 71.3653 238.732 71.856C238.466 72.3467 238.332 72.9227 238.332 73.584C238.332 74.256 238.466 74.8427 238.732 75.344C238.999 75.8347 239.356 76.2133 239.804 76.48C240.252 76.736 240.748 76.864 241.292 76.864C241.836 76.864 242.332 76.736 242.78 76.48C243.239 76.2133 243.602 75.8347 243.868 75.344C244.135 74.8427 244.268 74.2613 244.268 73.6ZM255.753 69.232L250.473 82.128H248.969L250.697 77.904L247.161 69.232H248.777L251.529 76.336L254.249 69.232H255.753Z" fill="#ECECEC"/>
<path d="M138 86.5H258L285 57.5H330.5" stroke="#E1DE00"/>
</svg>
