<svg width="142" height="142" viewBox="0 0 142 142" fill="none" xmlns="http://www.w3.org/2000/svg">
<rect x="142" y="70.9997" width="100" height="100" rx="5" transform="rotate(135 142 70.9997)" fill="#939393"/>
<g clip-path="url(#clip0_23_77)">
<path d="M46 45.9997H96V95.9997H46V45.9997Z" fill="#F7DF1E"/>
<path d="M59.1469 87.7833L62.9731 85.4677C63.7113 86.7764 64.3828 87.8839 65.9936 87.8839C67.5375 87.8839 68.5111 87.28 68.5111 84.9307V68.9546H73.2098V84.9972C73.2098 89.8638 70.357 92.079 66.1949 92.079C62.4361 92.079 60.2543 90.1323 59.1467 87.7829M75.7619 87.2798L79.5877 85.0647C80.5949 86.7095 81.9039 87.9177 84.2195 87.9177C86.1666 87.9177 87.408 86.9442 87.408 85.6016C87.408 83.9907 86.1326 83.42 83.9846 82.4805L82.8102 81.9766C79.4201 80.5339 77.1715 78.7214 77.1715 74.8952C77.1715 71.371 79.8564 68.6858 84.052 68.6858C87.0391 68.6858 89.1871 69.7264 90.7309 72.445L87.0723 74.7946C86.2666 73.3514 85.3943 72.7809 84.0518 72.7809C82.6756 72.7809 81.8029 73.6536 81.8029 74.7946C81.8029 76.2042 82.6756 76.7751 84.6893 77.6477L85.8639 78.1511C89.858 79.863 92.1066 81.6081 92.1066 85.5346C92.1066 89.7639 88.784 92.0796 84.3201 92.0796C79.957 92.0796 77.1377 89.9987 75.7617 87.28" fill="black"/>
</g>
<defs>
<clipPath id="clip0_23_77">
<rect width="50" height="50" fill="white" transform="translate(46 45.9997)"/>
</clipPath>
</defs>
</svg>
