<svg width="142" height="142" viewBox="0 0 142 142" fill="none" xmlns="http://www.w3.org/2000/svg">
<rect x="141.421" y="71" width="100" height="100" rx="5" transform="rotate(135 141.421 71)" fill="#939393"/>
<path d="M87.1462 48H54.8538C49.964 48 46 51.7162 46 56.3004V85.403C46 89.9872 49.964 93.7034 54.8538 93.7034H87.1462C92.036 93.7034 96 89.9872 96 85.403V56.3004C96 51.7162 92.036 48 87.1462 48Z" fill="#001E36"/>
<path d="M57.2592 80.0503V59.956C57.2592 59.8104 57.3256 59.7362 57.4605 59.7362C57.8171 59.7362 58.1444 59.7362 58.6329 59.7206C59.1214 59.705 59.6558 59.6995 60.2264 59.6894L62.0378 59.6574C62.6748 59.647 63.3063 59.6418 63.9322 59.6418C65.6316 59.6418 67.0646 59.8409 68.2311 60.239C69.2798 60.5723 70.2363 61.1201 71.0313 61.8429C71.7053 62.4697 72.2261 63.2263 72.5574 64.0604C72.8708 64.8726 73.0292 65.7302 73.0254 66.5939C73.0254 68.272 72.6118 69.6557 71.7845 70.7451C70.9515 71.8391 69.781 72.6677 68.4304 73.1192C67.0216 73.612 65.4554 73.7787 63.7339 73.7787C63.2454 73.7787 62.8956 73.7741 62.6944 73.7631C62.4931 73.7521 62.1912 73.7476 61.7887 73.7476V80.021C61.7938 80.0535 61.7919 80.0867 61.7833 80.1186C61.7746 80.1505 61.7593 80.1805 61.7382 80.2068C61.7172 80.2331 61.6907 80.2552 61.6605 80.2719C61.6302 80.2886 61.5968 80.2995 61.562 80.304C61.5371 80.3076 61.5117 80.3076 61.4868 80.304H57.4937C57.3334 80.3012 57.2592 80.2179 57.2592 80.0503ZM61.7887 63.5099V70.0636C62.0792 70.085 62.3475 70.0953 62.5937 70.0947H63.7007C64.5152 70.0921 65.3244 69.971 66.0993 69.7357C66.7635 69.5515 67.3573 69.1922 67.81 68.7006C68.2458 68.2188 68.4637 67.5471 68.4637 66.6855C68.4806 66.0772 68.311 65.477 67.9751 64.9562C67.6231 64.4525 67.1141 64.0626 66.5174 63.8396C65.7396 63.5564 64.9089 63.4228 64.0749 63.4467C63.5375 63.4467 63.0624 63.4519 62.6494 63.4623C62.2365 63.4727 61.9512 63.4885 61.7935 63.5099H61.7887Z" fill="#31A8FF"/>
<path d="M85.9943 68.8719C85.364 68.5679 84.6925 68.3457 83.9983 68.2115C83.2336 68.0467 82.4517 67.9622 81.6671 67.9596C81.2428 67.949 80.8191 67.9968 80.4097 68.1016C80.1487 68.1557 79.9167 68.295 79.7551 68.4945C79.6458 68.6541 79.5878 68.8398 79.588 69.0294C79.5939 69.2133 79.6647 69.3901 79.7893 69.5323C79.9851 69.7472 80.2245 69.9234 80.4937 70.0507C80.9717 70.2913 81.4643 70.5054 81.969 70.6919C83.0948 71.0454 84.1705 71.5258 85.1727 72.1226C85.8547 72.5269 86.4193 73.0833 86.816 73.742C87.1503 74.3668 87.3179 75.0583 87.3045 75.7571C87.3243 76.6788 87.0434 77.5841 86.4994 78.352C85.9167 79.131 85.1075 79.7366 84.1683 80.0969C83.1483 80.5171 81.8892 80.7271 80.3911 80.7271C79.4399 80.7354 78.4903 80.651 77.5578 80.4752C76.8228 80.3489 76.1073 80.1375 75.4278 79.846C75.3543 79.8106 75.2931 79.7563 75.2514 79.6895C75.2097 79.6226 75.1892 79.546 75.1924 79.4686V76.0731C75.1881 76.0398 75.1937 76.0061 75.2086 75.9756C75.2234 75.945 75.2468 75.9189 75.2764 75.9C75.3052 75.8846 75.3383 75.8778 75.3713 75.8806C75.4044 75.8834 75.4357 75.8956 75.4611 75.9156C76.2643 76.3595 77.1365 76.6831 78.0463 76.8746C78.8476 77.0631 79.6696 77.1634 80.4957 77.1732C81.2773 77.1732 81.8531 77.0789 82.223 76.8902C82.3896 76.8187 82.5304 76.7034 82.6286 76.5584C82.7267 76.4134 82.7779 76.2449 82.776 76.0731C82.776 75.8002 82.6083 75.5379 82.2729 75.2863C81.9374 75.0347 81.2548 74.7325 80.225 74.3795C79.1718 74.036 78.1733 73.5599 77.2568 72.9644C76.6013 72.5375 76.0613 71.9729 75.6799 71.3157C75.3493 70.6962 75.1818 70.0115 75.1914 69.3189C75.1885 68.4845 75.4327 67.6658 75.8968 66.9539C76.4241 66.1717 77.1814 65.5492 78.0775 65.1613C79.0611 64.7003 80.2908 64.4698 81.7668 64.4698C82.6313 64.463 83.4951 64.5206 84.35 64.642C84.9688 64.7166 85.5737 64.8707 86.1477 65.1C86.1933 65.1122 86.2352 65.1342 86.2701 65.1643C86.305 65.1943 86.332 65.2316 86.349 65.2731C86.3717 65.3497 86.3829 65.4289 86.3822 65.5085V68.685C86.3849 68.7217 86.3773 68.7585 86.3602 68.7916C86.343 68.8247 86.3169 68.853 86.2845 68.8737C86.2393 68.8945 86.1895 68.9051 86.1392 68.9048C86.0888 68.9045 86.0392 68.8932 85.9943 68.8719V68.8719Z" fill="#31A8FF"/>
</svg>
