<svg width="142" height="142" viewBox="0 0 142 142" fill="none" xmlns="http://www.w3.org/2000/svg">
<rect x="142" y="70.9997" width="100" height="100" rx="5" transform="rotate(135 142 70.9997)" fill="#939393"/>
<path d="M32.3 82.6055H27.95V78.2305H32.5367C34.215 78.2305 35.055 78.9805 35.055 80.4522C35.055 81.888 34.1367 82.6064 32.3008 82.6064M35.4275 78.1797C34.8317 77.6464 33.9975 77.3797 32.925 77.3797L26.695 77.413V87.8797H27.95L27.9383 83.4239H32.5742C33.7367 83.4239 34.6517 83.1572 35.3192 82.6239C35.9867 82.0905 36.3208 81.3489 36.3208 80.4022C36.3208 79.4555 36.0225 78.7139 35.4267 78.1805L35.4275 78.1797ZM43.55 85.683C43.4303 86.0255 43.2252 86.3319 42.9542 86.573C42.3917 87.123 41.5342 87.3955 40.3708 87.3955C39.3292 87.3955 38.5375 87.1289 37.9708 86.5955C37.4042 86.0622 37.1333 85.348 37.1333 84.4539C37.1333 83.9872 37.2067 83.5747 37.3525 83.2139C37.4908 82.8645 37.7082 82.5519 37.9875 82.3005C38.5642 81.7755 39.3592 81.5114 40.3708 81.5114C42.6208 81.5114 43.7317 82.4922 43.7317 84.453C43.7317 84.9197 43.6675 85.328 43.54 85.6814M43.7675 81.8205C43.0025 81.123 41.87 80.7739 40.37 80.7739C38.9533 80.7739 37.8575 81.1305 37.085 81.843C36.3875 82.488 36.0392 83.358 36.0392 84.453C36.0392 85.5405 36.3992 86.418 37.1192 87.0864C37.5167 87.4464 37.98 87.7072 38.5083 87.868C39.0367 88.0289 39.6583 88.118 40.37 88.118C41.87 88.118 42.9983 87.773 43.7867 87.083C44.4842 86.453 44.8325 85.5797 44.8325 84.4622C44.8325 83.3372 44.48 82.4597 43.7742 81.8289L43.7675 81.8205ZM53.2675 85.9847C53.2675 87.4014 52.005 88.098 49.4808 88.098C48.7092 88.098 48.0592 88.048 47.5308 87.9514C47.0025 87.8547 46.5742 87.6905 46.2442 87.4647C45.992 87.2936 45.7841 87.0651 45.6375 86.798C45.4875 86.5289 45.39 86.173 45.3458 85.7522L46.5125 85.7414C46.5125 86.2955 46.7183 86.7039 47.1292 86.9664C47.5708 87.2814 48.3517 87.4389 49.4733 87.4389C51.2375 87.4389 52.12 86.9972 52.12 86.1122C52.12 85.5955 51.8242 85.2397 51.2325 85.0455C51.1125 85.008 50.3992 84.9089 49.0908 84.748C47.7825 84.5872 46.9692 84.4422 46.6467 84.3147C45.95 84.0372 45.6017 83.5397 45.6017 82.8197C45.5888 82.4952 45.6701 82.174 45.8357 81.8947C46.0013 81.6154 46.2442 81.39 46.535 81.2455C46.8433 81.1039 47.2267 80.993 47.6883 80.9139C48.15 80.8347 48.6842 80.7955 49.2917 80.7955C51.7217 80.7955 52.9367 81.558 52.9367 83.083H51.82C51.82 82.0114 50.9658 81.4747 49.2575 81.4747C48.3883 81.4747 47.7408 81.583 47.3133 81.808C46.8858 82.033 46.6717 82.358 46.6717 82.808C46.6717 83.228 46.96 83.5314 47.5367 83.7189C47.8742 83.8164 48.6492 83.9289 49.8633 84.0564C50.95 84.1539 51.695 84.2922 52.1 84.473C52.8717 84.773 53.2667 85.2814 53.2667 86.0014L53.2675 85.9847ZM57.8808 87.9014L57.4033 87.968L57.105 87.9905C56.34 87.9905 55.7883 87.8797 55.4508 87.6572C55.1133 87.4347 54.9508 87.0472 54.9508 86.4905V81.7155H53.5592V81.013H54.9425L54.9533 78.7564H56.0242V81.013H57.8892V81.7272L56.0242 81.7155V86.363C56.0242 86.7089 56.1075 86.948 56.2992 87.0797C56.4908 87.2114 56.8108 87.2772 57.2825 87.2772C57.3492 87.2855 57.4242 87.2822 57.5075 87.2689C57.5908 87.2555 57.7133 87.2272 57.8783 87.1839L57.89 87.9005L57.8808 87.9014ZM65.2867 86.308C64.9894 86.5506 64.6505 86.7372 64.2867 86.8589C63.9117 86.9864 63.4817 87.0505 62.995 87.0505C60.755 87.0505 59.6367 86.1339 59.6367 84.2755C59.6367 83.4147 59.9233 82.7405 60.495 82.2539C61.0667 81.7672 61.875 81.5239 62.9158 81.5239C63.9642 81.5239 64.76 81.7689 65.3033 82.2597C65.8467 82.7505 66.1183 83.4072 66.1183 84.2314C66.1183 85.1297 65.8408 85.8147 65.2867 86.3097M67.1892 81.0097H66.1183L66.1067 82.1905C65.635 81.7114 65.2983 81.4072 65.095 81.2805C64.495 80.9514 63.72 80.7864 62.7683 80.7864C61.3742 80.7864 60.31 81.1047 59.5767 81.7414C58.88 82.3247 58.5317 83.1722 58.5317 84.2805C58.5317 84.8272 58.62 85.3164 58.7958 85.7472C58.9717 86.178 59.2292 86.543 59.5667 86.8422C60.3025 87.4564 61.3417 87.7639 62.685 87.7639C64.2983 87.7639 65.435 87.3222 66.1183 86.4305V87.653C66.1183 88.4322 65.8725 89.0364 65.3817 89.463C64.8908 89.8897 64.0833 90.1047 62.9592 90.1047C61.9025 90.1047 61.1492 89.9589 60.7092 89.668C60.3717 89.4447 60.1392 89.0564 60.0125 88.5039H58.9167C59.0367 89.2747 59.3625 89.833 59.895 90.1772C60.51 90.5739 61.5483 90.7722 63.01 90.7722C65.8067 90.7722 67.205 89.733 67.205 87.6539V81.0014L67.1892 81.0097ZM72.9808 81.7055C72.684 81.6553 72.3836 81.6291 72.0825 81.6272C70.3225 81.6272 69.4425 82.5922 69.4425 84.523V87.8797H68.3842L68.3725 81.0105L69.4433 81.0214V82.2464H69.4992C69.6792 81.763 69.9633 81.3964 70.3533 81.148C70.78 80.898 71.4167 80.7855 72.2633 80.7855H72.9825V81.7047L72.9808 81.7055ZM73.9775 84.0105C74.1125 83.2297 74.4158 82.6255 74.8875 82.1972C75.1958 81.9497 75.5433 81.7639 75.9325 81.6389C76.3217 81.5139 76.7608 81.453 77.2475 81.453C78.1992 81.453 78.9758 81.7139 79.5792 82.2364C80.1825 82.7589 80.4917 83.3497 80.4917 84.0114H73.9858M80.5967 81.8922C80.2051 81.5065 79.7267 81.2204 79.2017 81.058C78.6467 80.8772 77.9983 80.7872 77.2558 80.7872C75.8683 80.7872 74.7925 81.1097 74.0275 81.7539C73.2625 82.398 72.88 83.2764 72.88 84.3872C72.88 85.498 73.2467 86.3872 73.9817 87.0305C74.7758 87.7505 75.8967 88.1105 77.3442 88.1105C77.9208 88.1105 78.455 88.0439 78.9458 87.9147C79.4367 87.7855 79.8658 87.598 80.2333 87.3605C80.8783 86.8972 81.2858 86.3272 81.4583 85.6472H80.2917C79.8942 86.8139 78.9058 87.4089 77.325 87.4089C76.2083 87.4089 75.35 87.1222 74.7417 86.5472C74.225 86.0472 73.9667 85.4172 73.9667 84.6339H81.6C81.6 83.4689 81.2667 82.5547 80.5767 81.8839L80.5967 81.8922Z" fill="#231F20"/>
<path d="M92.9333 85.073C92.9333 87.1122 91.2883 88.1314 88 88.1314C86.0292 88.1314 84.59 87.7814 83.6833 87.0772C82.9333 86.4997 82.5708 85.6189 82.5708 84.4355H83.9042C83.9042 86.3397 85.2708 87.2914 88.0083 87.2914C89.32 87.2914 90.2692 87.0964 90.8533 86.708C91.3483 86.3639 91.6033 85.8247 91.6033 85.0914C91.6033 84.3647 91.2658 83.8555 90.5908 83.563C90.2075 83.3964 89.2742 83.2072 87.7908 82.9672C85.9242 82.6822 84.7133 82.398 84.1592 82.1139C83.3575 81.6947 82.9558 80.983 82.9558 79.9789C82.9558 79.043 83.2892 78.3455 83.9792 77.8889C84.7125 77.3872 85.9733 77.1364 87.7575 77.1364C90.9825 77.1364 92.5933 78.2072 92.5933 80.3489H91.25C91.25 78.7447 90.0525 77.943 87.6667 77.943C86.4667 77.943 85.5883 78.1047 85.0333 78.4264C84.5083 78.7714 84.2458 79.2764 84.2458 79.9447C84.2458 80.6422 84.5833 81.133 85.2583 81.418C85.6167 81.583 86.675 81.8114 88.43 82.1047C90.08 82.3522 91.1925 82.6405 91.7633 82.9714C92.5508 83.3764 92.9442 84.0772 92.9442 85.0747L92.9333 85.073ZM103.69 86.1147C103.191 86.5133 102.623 86.8159 102.013 87.0072C101.39 87.2055 100.692 87.3047 99.92 87.3047C98.3367 87.3047 97.07 86.888 96.0983 86.0297C95.1267 85.1714 94.64 84.0489 94.64 82.6347C94.64 81.1597 95.1217 80.0122 96.0858 79.1889C97.05 78.3655 98.3358 77.9539 99.9192 77.9539C101.532 77.9539 102.801 78.3839 103.723 79.2455C104.211 79.6647 104.571 80.1622 104.804 80.7164C105.037 81.2705 105.154 81.9164 105.154 82.6355C105.154 84.1022 104.666 85.2622 103.691 86.1155M104.395 86.8097C105.085 86.323 105.595 85.7264 105.926 85.0405C106.257 84.3547 106.422 83.5405 106.422 82.6422C106.422 81.0172 105.882 79.7139 104.802 78.7255C104.224 78.1864 103.527 77.7855 102.718 77.5239C101.91 77.2622 100.968 77.1305 99.9183 77.1305C97.8792 77.1305 96.2783 77.6247 95.1158 78.6139C93.9533 79.603 93.3725 80.943 93.3725 82.6355C93.3725 84.283 93.9583 85.6122 95.1225 86.623C96.2867 87.6339 97.8975 88.1397 99.9292 88.1397C100.723 88.1397 101.417 88.0855 102.009 87.9789C102.602 87.8722 103.103 87.7064 103.516 87.4839L105.472 88.8397L106.289 88.0897L104.395 86.8047V86.8097ZM116.337 87.8789H107.288V77.3997L108.532 77.3772V87.0022H116.349L116.337 87.8772L116.337 87.8789Z" fill="#367FAF"/>
<path d="M77.1792 68.963C77.3433 67.5964 77.2942 67.3964 78.3125 67.618L78.5625 67.6405C79.3458 67.6764 80.3683 67.5155 80.9708 67.2355C82.265 66.6355 83.0325 65.6322 81.7567 65.8955C78.845 66.4955 78.645 65.5105 78.645 65.5105C81.72 60.9489 83.0033 55.158 81.895 53.7414C78.87 49.8747 73.6317 51.7039 73.545 51.7514L73.5175 51.7564C72.9425 51.6372 72.2983 51.5647 71.5758 51.5539C70.2592 51.5322 69.2592 51.8989 68.4925 52.4747C68.4925 52.4747 59.1492 48.6247 59.5758 57.3164C59.6675 59.1647 62.2258 71.3047 65.2758 67.638C66.3908 66.2964 67.4675 65.163 67.4675 65.163C68.0025 65.5189 68.6342 65.6997 69.315 65.6347L69.3667 65.5905C69.3511 65.7646 69.3581 65.9399 69.3875 66.1122C68.6017 66.9897 68.8325 67.1455 67.2625 67.468C65.6733 67.7955 66.6067 68.3789 67.2167 68.5314C67.9558 68.7164 69.6667 68.978 70.8208 67.3605L70.775 67.5455C71.0833 67.7922 71.0625 69.318 71.1058 70.408C71.1492 71.498 71.2225 72.5164 71.445 73.1164C71.6675 73.7164 71.9283 75.2614 73.995 74.8189C75.72 74.4489 77.04 73.9172 77.16 68.9664" fill="#231F20"/>
<path d="M77.1792 68.963C77.3433 67.5964 77.2942 67.3964 78.3125 67.618L78.5625 67.6405C79.3458 67.6764 80.3683 67.5155 80.9708 67.2355C82.265 66.6355 83.0325 65.6322 81.7567 65.8955C78.845 66.4955 78.645 65.5105 78.645 65.5105C81.72 60.9489 83.0033 55.158 81.895 53.7414C78.87 49.8747 73.6317 51.7039 73.545 51.7514L73.5175 51.7564C72.9425 51.6372 72.2983 51.5647 71.5758 51.5539C70.2592 51.5322 69.2592 51.8989 68.4925 52.4747C68.4925 52.4747 59.1492 48.6247 59.5758 57.3164C59.6675 59.1647 62.2258 71.3047 65.2758 67.638C66.3908 66.2964 67.4675 65.163 67.4675 65.163C68.0025 65.5189 68.6342 65.6997 69.315 65.6347L69.3667 65.5905C69.3511 65.7646 69.3581 65.9399 69.3875 66.1122C68.6017 66.9897 68.8325 67.1455 67.2625 67.468C65.6733 67.7955 66.6067 68.3789 67.2167 68.5314C67.9558 68.7164 69.6667 68.978 70.8208 67.3605L70.775 67.5455C71.0833 67.7922 71.0625 69.318 71.1058 70.408C71.1492 71.498 71.2225 72.5164 71.445 73.1164C71.6675 73.7164 71.9283 75.2614 73.995 74.8189C75.72 74.4489 77.04 73.9172 77.16 68.9664" stroke="#231F20" stroke-width="2.598"/>
<path d="M81.7633 65.8955C78.8517 66.4955 78.6517 65.5105 78.6517 65.5105C81.7267 60.9489 83.01 55.158 81.9017 53.7405C78.8767 49.8739 73.6383 51.703 73.5517 51.7505L73.5233 51.7555C72.9483 51.6364 72.3042 51.5639 71.5817 51.553C70.265 51.5314 69.265 51.898 68.4983 52.4739C68.4983 52.4739 59.155 48.6239 59.5817 57.3155C59.6733 59.1655 62.2317 71.3039 65.2817 67.6372C66.3967 66.2955 67.4733 65.1622 67.4733 65.1622C68.0083 65.518 68.6483 65.6989 69.32 65.6339L69.3725 65.5897C69.3558 65.7564 69.3642 65.9189 69.3933 66.1114C68.6075 66.9889 68.8383 67.1447 67.2683 67.4672C65.6792 67.7947 66.6125 68.378 67.2225 68.5305C67.9617 68.7155 69.6725 68.9772 70.8267 67.3597L70.7808 67.5447C71.0892 67.7914 71.3058 69.1489 71.2683 70.378C71.2308 71.6072 71.2083 72.453 71.4517 73.113C71.695 73.773 71.935 75.258 74.0017 74.8155C75.7267 74.4455 76.6217 73.4872 76.7458 71.8889C76.8342 70.7522 77.0342 70.9205 77.0458 69.9055L77.2058 69.4247C77.3908 67.883 77.235 67.3872 78.2975 67.6189L78.5475 67.6414C79.3308 67.6772 80.3542 67.5164 80.9558 67.2364C82.25 66.6364 83.0175 65.633 81.7417 65.8964L81.7633 65.8955Z" fill="#417BA2"/>
<path d="M70.9667 66.7789C70.8867 69.6455 70.9867 72.5314 71.2667 73.233C71.5467 73.9347 72.1475 75.2997 74.2133 74.8564C75.9383 74.4864 76.5667 73.7705 76.8383 72.1897L77.4758 67.1372M68.5 52.4097C68.5 52.4097 59.15 48.588 59.5833 57.278C59.6667 59.128 62.2333 71.2672 65.2833 67.6005C66.3983 66.2672 67.4058 65.2089 67.4058 65.2089M73.5417 51.7122C73.2083 51.8139 78.7417 49.693 81.8817 53.7122C82.99 55.1289 81.715 60.9205 78.6317 65.4822" stroke="white" stroke-width="0.866" stroke-linecap="round" stroke-linejoin="round"/>
<path d="M78.6308 65.4747C78.6308 65.4747 78.8308 66.4605 81.7433 65.8597C83.0183 65.5964 82.2433 66.5989 80.9575 67.1997C79.8958 67.6914 77.5158 67.8189 77.4758 67.138C77.3758 65.3797 78.7292 65.9147 78.6308 65.4747ZM78.6308 65.4747C78.5425 65.078 77.9375 64.6889 77.5375 63.7189C77.1875 62.8714 72.7458 56.3755 78.7708 57.3405C78.9917 57.2947 77.1992 51.6097 71.5608 51.5172C65.9225 51.4247 66.1092 58.4505 66.1092 58.4505" stroke="white" stroke-width="0.866" stroke-linecap="round" stroke-linejoin="bevel"/>
<path d="M69.3883 66.0747C68.6025 66.9522 68.8333 67.108 67.2633 67.4305C65.6742 67.758 66.6075 68.3414 67.2175 68.4939C67.9567 68.6789 69.6675 68.9405 70.8217 67.323C71.1733 66.8314 70.82 66.0447 70.3367 65.8439C70.1033 65.7472 69.7908 65.6272 69.39 66.0747H69.3883Z" stroke="white" stroke-width="0.866" stroke-linejoin="round"/>
<path d="M69.3367 66.0597C69.2575 65.543 69.5067 64.9297 69.7725 64.2097C70.1725 63.1314 71.1058 62.053 70.3583 58.633C69.8083 56.0847 66.11 58.1022 66.1083 58.448C66.1067 58.7939 66.275 60.1997 66.0467 61.8372C65.7467 63.9739 67.405 65.7814 69.3158 65.5955" stroke="white" stroke-width="0.866" stroke-linecap="round" stroke-linejoin="round"/>
<path d="M68.4567 58.3972C68.44 58.5155 68.6733 58.8305 68.9758 58.8722C69.2783 58.9139 69.5383 58.668 69.5542 58.5505C69.57 58.433 69.3375 58.3022 69.0342 58.2589C68.7308 58.2155 68.4717 58.278 68.4558 58.3964L68.4567 58.3972Z" fill="white" stroke="white" stroke-width="0.289"/>
<path d="M77.685 58.1564C77.7017 58.2747 77.4683 58.5897 77.1658 58.6314C76.8633 58.673 76.6033 58.4272 76.5867 58.3097C76.57 58.1922 76.8033 58.0614 77.1067 58.0197C77.41 57.978 77.6692 58.0389 77.6858 58.1572L77.685 58.1564Z" fill="white" stroke="white" stroke-width="0.144"/>
<path d="M78.7692 57.3397C78.8192 58.2647 78.5692 58.8964 78.5383 59.8814C78.4917 61.3147 79.2217 62.9539 78.1217 64.5955" stroke="white" stroke-width="0.866" stroke-linecap="round" stroke-linejoin="round"/>
</svg>
