<svg width="142" height="142" viewBox="0 0 142 142" fill="none" xmlns="http://www.w3.org/2000/svg">
<rect x="142" y="70.9997" width="100" height="100" rx="5" transform="rotate(135 142 70.9997)" fill="#939393"/>
<g clip-path="url(#clip0_23_79)">
<path d="M58.9388 52.899C58.9388 49.5339 59.8617 47.7033 64.9575 46.8316C68.4172 46.2388 72.853 46.1646 76.9908 46.8316C80.2589 47.359 83.0096 49.7389 83.0096 52.899V64.001C83.0096 67.2572 80.339 69.9244 76.9908 69.9244H64.9575C60.8736 69.9244 57.4317 73.3288 57.4317 77.1775V82.5041H53.2942C49.7944 82.5041 47.7567 80.0369 46.9007 76.5847C45.7461 71.9467 45.7951 69.1834 46.9007 64.7416C47.8593 60.8667 50.9222 58.8221 54.4223 58.8221H70.9763V57.3401H58.9385V52.8987L58.9388 52.899Z" fill="url(#paint0_linear_23_79)"/>
<path d="M83.0098 88.4278C83.0098 91.7928 80.0227 93.4972 76.9911 94.3472C72.4301 95.6287 68.7696 95.4326 64.9578 94.3472C61.7743 93.4407 58.939 91.5881 58.939 88.4278V77.3257C58.939 74.1306 61.6632 71.4023 64.9578 71.4023H76.9911C80.9992 71.4023 84.5169 68.0158 84.5169 64.001V58.8226H89.0289C92.5332 58.8226 94.1831 61.3681 95.0476 64.7421C96.2513 69.4279 96.3049 72.9323 95.0476 76.5852C93.8306 80.1333 92.5287 82.5046 89.0289 82.5046H70.9766V83.9867H83.0098V88.428V88.4278Z" fill="url(#paint1_linear_23_79)"/>
<path d="M61.9482 52.1624C61.9482 50.9333 62.9558 49.9393 64.2044 49.9393C65.4482 49.9393 66.4606 50.933 66.4606 52.1624C66.4606 53.3876 65.4485 54.3811 64.2044 54.3811C62.9563 54.3811 61.9482 53.3873 61.9482 52.1624ZM75.488 89.1646C75.488 87.9394 76.5001 86.9459 77.7442 86.9459C78.9923 86.9459 80.0005 87.9397 80.0005 89.1646C80.0005 90.3937 78.9929 91.3877 77.7442 91.3877C76.5004 91.3877 75.488 90.394 75.488 89.1646Z" fill="white"/>
</g>
<defs>
<linearGradient id="paint0_linear_23_79" x1="83.0098" y1="60.4102" x2="46.0534" y2="60.1096" gradientUnits="userSpaceOnUse">
<stop stop-color="#366A96"/>
<stop offset="1" stop-color="#3679B0"/>
</linearGradient>
<linearGradient id="paint1_linear_23_79" x1="95.9704" y1="77.0295" x2="22.8142" y2="77.0295" gradientUnits="userSpaceOnUse">
<stop stop-color="#FFC836"/>
<stop offset="1" stop-color="#FFE873"/>
</linearGradient>
<clipPath id="clip0_23_79">
<rect width="50" height="50" fill="white" transform="translate(46 45.9997)"/>
</clipPath>
</defs>
</svg>
